<?xml version="1.0" encoding="UTF-8"?>
<!DOCTYPE svg PUBLIC "-//W3C//DTD SVG 1.1//EN" "http://www.w3.org/Graphics/SVG/1.1/DTD/svg11.dtd">
<!-- Creator: CorelDRAW X8 -->
<svg xmlns="http://www.w3.org/2000/svg" xml:space="preserve" width="100%" height="100%" version="1.1" style="shape-rendering:geometricPrecision; text-rendering:geometricPrecision; image-rendering:optimizeQuality; fill-rule:evenodd; clip-rule:evenodd"
viewBox="0 0 500 500"
 xmlns:xlink="http://www.w3.org/1999/xlink">
 <defs>
  <style type="text/css">
   <![CDATA[
    .fil0 {fill:#383838}
   ]]>
  </style>
 </defs>
 <g id="Layer_x0020_1">
  <metadata id="CorelCorpID_0Corel-Layer"/>
  <path class="fil0" d="M78 470l344 0 0 -440 -344 0 0 440zm43 -35l258 0 0 -103 -258 0 0 103zm81 -44l96 0 0 -14 -96 0 0 14zm-81 -223l258 0 0 -103 -258 0 0 103zm81 -45l96 0 0 -14 -96 0 0 14zm-81 178l258 0 0 -102 -258 0 0 102zm81 -44l96 0 0 -14 -96 0 0 14z"/>
 </g>
</svg>
