<?xml version="1.0" encoding="UTF-8"?>
<!DOCTYPE svg PUBLIC "-//W3C//DTD SVG 1.1//EN" "http://www.w3.org/Graphics/SVG/1.1/DTD/svg11.dtd">
<!-- Creator: CorelDRAW X8 -->
<svg xmlns="http://www.w3.org/2000/svg" xml:space="preserve" width="837px" height="253px" version="1.1" style="shape-rendering:geometricPrecision; text-rendering:geometricPrecision; image-rendering:optimizeQuality; fill-rule:evenodd; clip-rule:evenodd"
viewBox="0 0 83700 25311"
 xmlns:xlink="http://www.w3.org/1999/xlink">
 <defs>
  <style type="text/css">
   <![CDATA[
    .str0 {stroke:#434242;stroke-width:461.418}
    .fil0 {fill:none}
    .fil6 {fill:#434242}
    .fil7 {fill:#008BFF}
    .fil4 {fill:#333333}
    .fil8 {fill:#EBF6FF}
    .fil12 {fill:white}
    .fil9 {fill:#C8C8C8}
    .fil5 {fill:#FBFBFC}
    .fil3 {fill:#434242;fill-rule:nonzero}
    .fil10 {fill:url(#id0)}
    .fil1 {fill:url(#id1)}
    .fil11 {fill:url(#id2)}
    .fil2 {fill:url(#id3)}
   ]]>
  </style>
  <linearGradient id="id0" gradientUnits="userSpaceOnUse" x1="74899.5" y1="6281.22" x2="74899.5" y2="13424.1">
   <stop offset="0" style="stop-opacity:1; stop-color:#FCFCFD"/>
   <stop offset="1" style="stop-opacity:1; stop-color:#EDEDED"/>
  </linearGradient>
  <linearGradient id="id1" gradientUnits="userSpaceOnUse" xlink:href="#id0" x1="38990.5" y1="4815.56" x2="38990.5" y2="16446.5">
  </linearGradient>
  <radialGradient id="id2" gradientUnits="userSpaceOnUse" gradientTransform="matrix(6.14622E-17 1.00375 -1.00375 6.14622E-17 89792 -65794)" cx="77624.2" cy="12121.8" r="3730.18" fx="77624.2" fy="12121.8">
   <stop offset="0" style="stop-opacity:1; stop-color:#00AAFF"/>
   <stop offset="1" style="stop-opacity:1; stop-color:#008BFF"/>
  </radialGradient>
  <radialGradient id="id3" gradientUnits="userSpaceOnUse" gradientTransform="matrix(-1.61415E-16 1.00375 -1.00376 -1.61417E-16 57807 -29265)" xlink:href="#id2" cx="43427.5" cy="14325.8" r="6073.98" fx="43427.5" fy="14325.8">
  </radialGradient>
 </defs>
 <g id="Layer_x0020_1">
  <metadata id="CorelCorpID_0Corel-Layer"/>
  <rect class="fil0" width="83700" height="25311"/>
  <path class="fil1 str0" d="M35544 4816l8185 0c2606,0 4738,2132 4738,4738l0 2154c0,2606 -2132,4738 -4738,4738l-4739 1c-430,-1 -433,101 -649,220l-3227 2795c-215,166 -431,215 -431,0l431 -2800c62,-215 -397,-257 -717,-357 -2057,-516 -3591,-2386 -3591,-4597l0 -2154c0,-2606 2132,-4738 4738,-4738z"/>
  <g>
   <path class="fil2" d="M46293 9997l-5989 0c-1907,0 -3467,1560 -3467,3467l0 1576c0,1907 1560,3467 3467,3467l3467 0c315,0 317,75 475,162l2362 2045c157,122 315,158 315,0l-315 -2049c-46,-158 290,-187 524,-261 1505,-378 2628,-1746 2628,-3364l0 -1576c0,-1907 -1560,-3467 -3467,-3467z"/>
   <path id="1" class="fil3" d="M40304 10228l0 -462 5989 0 0 462 -5989 0zm-3698 3236l0 0 5 -189 14 -188 24 -184 32 -182 42 -179 50 -175 58 -172 67 -167 74 -164 82 -160 89 -154 97 -150 103 -145 110 -140 116 -134 123 -129 128 -122 135 -117 139 -110 145 -103 150 -96 155 -90 160 -81 163 -75 168 -66 172 -59 175 -50 179 -41 182 -33 184 -24 187 -14 190 -5 0 462 -166 4 -164 12 -161 21 -159 29 -156 36 -154 44 -150 51 -146 58 -144 65 -139 72 -136 78 -131 84 -127 91 -122 96 -118 102 -113 108 -107 112 -102 118 -97 122 -90 127 -85 132 -78 135 -72 140 -64 143 -59 147 -51 150 -43 153 -37 156 -28 159 -21 161 -12 164 -5 166 0 0 -461 0zm461 1576l-461 0 0 -1576 461 0 0 1576zm3237 3698l0 0 -190 -5 -187 -14 -185 -24 -181 -32 -179 -42 -175 -50 -172 -58 -168 -67 -163 -74 -160 -82 -154 -89 -151 -97 -145 -103 -139 -110 -135 -116 -128 -123 -123 -128 -116 -135 -110 -139 -103 -145 -97 -150 -89 -155 -82 -160 -74 -163 -67 -168 -58 -172 -50 -175 -41 -179 -33 -182 -24 -184 -14 -187 -5 -190 461 0 5 166 12 164 21 161 28 159 37 156 43 153 51 151 59 146 64 144 72 139 78 136 85 131 90 127 97 122 102 118 107 113 113 107 118 102 122 97 127 90 131 85 136 78 140 72 143 65 147 58 149 51 154 43 156 37 159 28 161 21 164 13 166 4 0 0 0 461zm3467 -461l0 461 -3467 0 0 -461 3467 0zm324 566l39 28 -18 -11 -17 -10 -17 -11 -16 -10 -14 -9 -12 -9 -12 -8 -10 -7 -11 -7 -9 -6 -7 -5 -6 -4 -6 -4 -5 -3 -4 -3 -4 -1 -4 -3 -5 -2 -3 -1 -6 -2 -7 -2 -7 -2 -8 -1 -9 -2 -13 -2 -13 -2 -16 -2 -16 -1 -19 -1 -21 -1 -23 -1 -25 0 0 -461 32 0 31 1 30 1 28 2 28 2 26 3 26 3 24 4 24 5 24 5 23 6 21 7 22 7 21 8 20 9 18 8 19 10 16 9 16 9 14 9 14 9 12 9 12 8 9 6 11 8 10 7 9 6 9 6 9 6 8 5 10 6 10 6 40 27 -302 349zm262 -376l21 11 19 16 -40 -27zm2402 2073l-292 356 -10 -8 -2362 -2045 302 -349 2362 2046zm-292 356l-5 -4 -5 -4 10 8zm684 -217l3 35 -1 29 -3 30 -6 32 -9 33 -13 32 -17 32 -22 32 -25 28 -30 26 -32 21 -35 17 -32 11 -33 8 -32 4 -29 1 -28 -1 -27 -3 -25 -5 -23 -5 -24 -7 -23 -7 -21 -8 -21 -10 -21 -9 -19 -10 -21 -11 -20 -12 -20 -12 -19 -13 -18 -13 -20 -13 -18 -15 282 -364 11 8 10 7 11 7 10 7 9 6 9 5 7 4 9 4 7 3 5 3 5 2 3 1 2 0 1 0 -2 0 -4 0 -7 0 -8 0 -12 1 -14 4 -15 5 -18 9 -18 11 -16 14 -13 15 -11 16 -8 14 -5 13 -3 10 -1 8 -1 4 0 1 3 35 456 -70zm0 0l3 17 0 18 -3 -35zm-771 -1979l449 -99 7 29 315 2049 -456 70 -315 -2049zm449 -99l5 15 2 14 -7 -29zm359 27l13 -4 -25 8 -26 7 -26 7 -25 7 -25 7 -26 6 -24 6 -24 6 -24 5 -21 6 -22 6 -22 5 -20 6 -19 5 -17 5 -16 5 -14 6 -12 4 -10 4 -8 4 -5 3 -2 1 1 -1 4 -3 7 -7 9 -11 10 -17 8 -20 5 -23 2 -24 -1 -21 -4 -15 -443 128 -9 -44 -4 -48 4 -50 12 -47 17 -44 24 -39 25 -32 27 -27 28 -23 27 -19 26 -16 26 -14 26 -12 26 -11 25 -10 25 -8 25 -9 26 -8 25 -7 25 -6 24 -7 25 -6 25 -7 24 -5 24 -6 24 -6 22 -6 23 -5 21 -6 21 -6 19 -6 19 -5 13 -4 112 448zm-125 -444l6 -2 7 -2 -13 4zm2928 -3144l0 0 -4 161 -10 159 -17 158 -24 155 -30 154 -37 151 -42 148 -49 147 -54 143 -60 140 -66 138 -71 134 -77 131 -81 127 -86 124 -92 120 -96 117 -100 112 -105 108 -110 104 -113 99 -117 95 -121 90 -125 85 -129 80 -132 75 -135 69 -138 65 -141 58 -144 53 -147 47 -150 41 -112 -448 131 -35 128 -42 126 -46 123 -51 121 -56 119 -61 115 -66 113 -70 109 -74 106 -79 103 -83 99 -87 96 -91 92 -95 88 -98 85 -102 79 -106 76 -108 72 -112 67 -114 62 -118 57 -120 53 -123 48 -125 42 -128 37 -130 32 -132 26 -134 21 -136 15 -138 9 -139 3 -141 0 0 462 0zm-462 -1576l462 0 0 1576 -462 0 0 -1576zm-3236 -3698l0 0 189 5 187 14 185 24 182 33 178 41 176 50 171 59 168 66 164 75 159 81 155 90 150 96 145 103 140 110 134 117 129 122 122 129 116 134 110 140 104 145 96 150 89 154 82 160 75 164 66 167 58 172 51 175 41 179 33 182 23 184 15 188 5 189 -462 0 -4 -166 -13 -164 -20 -161 -29 -159 -36 -156 -44 -153 -51 -150 -58 -147 -65 -143 -72 -140 -78 -135 -84 -132 -91 -127 -96 -122 -102 -118 -108 -112 -112 -108 -118 -102 -123 -96 -127 -91 -131 -84 -136 -78 -139 -72 -143 -65 -147 -58 -150 -51 -153 -44 -156 -36 -159 -29 -162 -21 -163 -12 -166 -4 0 0 0 -462z"/>
  </g>
  <rect class="fil4" x="22968" y="10764" width="905" height="3748" rx="129" ry="129"/>
  <rect class="fil4" transform="matrix(5.79913E-15 0.218963 -0.218963 5.79913E-15 25293.8 12185.7)" width="4131" height="17116" rx="590" ry="590"/>
  <path class="fil4" d="M58256 10972l0 646c0,71 -58,129 -129,129l-3490 0c-71,0 -129,-58 -129,-129l0 -646c0,-71 58,-130 129,-130l3490 0c71,0 129,59 129,130zm0 2584l0 -646c0,-71 -58,-129 -129,-129l-3490 0c-71,0 -129,58 -129,129l0 646c0,71 58,130 129,130l3490 0c71,0 129,-59 129,-130z"/>
  <rect class="fil5" x="67365" y="4126" width="9477" height="16111" rx="474" ry="501"/>
  <path class="fil6" d="M67839 3179l8529 0c782,0 1422,639 1422,1421l0 16111c0,782 -640,1421 -1422,1421l-8529 0c-782,0 -1422,-639 -1422,-1421l0 -16111c0,-782 640,-1421 1422,-1421zm0 947l8529 0c261,0 474,214 474,474l0 15163c0,261 -213,474 -474,474l-8529 0c-261,0 -474,-213 -474,-474l0 -15163c0,-260 213,-474 474,-474z"/>
  <circle class="fil7" cx="72103" cy="21185" r="474"/>
  <path class="fil8" d="M76842 9228c-1179,2193 -3495,3685 -6160,3685 -1200,0 -2330,-303 -3317,-836l0 -7477c0,-260 213,-474 474,-474l8529 0c261,0 474,214 474,474l0 4628z"/>
  <rect class="fil9" x="73280" y="20970" width="2154" height="431" rx="1077" ry="215"/>
  <rect class="fil9" x="68645" y="20970" width="2154" height="431" rx="1077" ry="215"/>
  <g>
   <path class="fil10" d="M72783 6281l5026 0c1601,0 2910,1310 2910,2910l0 1323c0,1601 -1309,2910 -2910,2910l-2910 0c-264,0 -266,62 -398,135l-1982 1717c-133,102 -265,132 -265,0l265 -1720c38,-132 -244,-157 -441,-219 -1263,-317 -2205,-1465 -2205,-2823l0 -1323c0,-1600 1310,-2910 2910,-2910z"/>
   <path id="1" class="fil3" d="M77809 6435l-5026 0 0 -308 5026 0 0 0 0 308zm3064 2756l-307 0 0 0 -4 -141 -11 -140 -17 -137 -25 -135 -31 -133 -37 -131 -43 -127 -50 -125 -55 -123 -61 -118 -67 -116 -72 -112 -77 -108 -82 -104 -87 -100 -91 -96 -96 -92 -100 -87 -104 -82 -109 -77 -112 -72 -115 -66 -119 -61 -122 -56 -125 -49 -128 -44 -130 -37 -133 -31 -135 -24 -138 -18 -139 -10 -142 -4 0 -308 157 4 155 12 154 20 150 27 148 34 145 42 142 48 140 55 135 62 132 68 129 74 124 80 120 85 116 91 111 97 106 101 102 107 97 111 91 116 85 120 80 124 74 129 68 132 61 135 56 139 48 143 41 145 35 148 27 150 19 153 12 155 4 157 0 0zm-307 1323l0 -1323 307 0 0 1323 0 0 -307 0zm-2757 3064l0 -308 0 0 142 -3 139 -11 138 -18 135 -24 133 -31 131 -37 127 -44 125 -49 122 -56 119 -61 115 -66 112 -72 109 -77 104 -82 100 -87 96 -91 91 -96 87 -101 82 -104 77 -108 72 -112 67 -115 61 -119 55 -122 50 -125 43 -128 37 -130 31 -133 25 -136 17 -137 11 -140 4 -141 307 0 -4 157 -12 155 -19 153 -27 151 -35 148 -41 145 -48 142 -56 139 -61 136 -68 132 -74 128 -80 124 -85 120 -92 116 -96 112 -102 106 -106 102 -111 96 -116 91 -120 86 -125 80 -128 74 -132 67 -135 62 -140 55 -142 49 -145 41 -148 34 -151 27 -153 20 -155 12 -157 4 0 0zm-2910 -308l2910 0 0 308 -2910 0 0 0 0 -308zm-297 406l-202 -233 27 -18 9 -6 9 -5 8 -5 8 -5 7 -5 8 -6 9 -6 9 -6 8 -6 10 -6 10 -7 10 -7 11 -7 13 -7 13 -8 14 -7 14 -6 15 -7 17 -6 16 -6 17 -5 18 -5 18 -4 19 -3 20 -4 21 -2 21 -3 22 -2 23 -1 24 -1 25 0 26 -1 0 308 -21 0 -20 0 -18 1 -17 1 -15 2 -14 1 -12 2 -11 1 -10 2 -9 2 -6 2 -7 2 -6 2 -5 2 -4 2 -6 2 -4 3 -5 2 -5 3 -6 4 -6 4 -7 5 -7 4 -8 6 -9 7 -9 6 -11 7 -12 8 -12 8 -13 8 -14 8 -15 9 27 -18zm-202 -233l12 -11 15 -7 -27 18zm-1982 1717l1982 -1717 202 233 -1983 1716 -6 6 -195 -238zm201 232l-4 4 -2 2 6 -6zm-517 -139l304 46 2 -23 0 2 0 -1 -1 -2 -1 -5 -3 -8 -4 -7 -7 -10 -8 -9 -9 -8 -10 -7 -10 -4 -10 -4 -8 -2 -5 0 -4 -1 -3 1 0 -1 1 0 1 0 4 -1 5 -2 5 -2 6 -2 7 -4 8 -3 7 -5 9 -5 9 -5 9 -6 9 -6 10 -7 9 -8 189 244 -15 11 -15 11 -16 10 -15 11 -15 9 -16 9 -16 9 -16 8 -16 7 -17 8 -17 6 -16 5 -18 5 -19 5 -18 3 -20 2 -20 1 -22 -1 -22 -3 -23 -5 -25 -8 -23 -12 -23 -15 -21 -18 -18 -20 -16 -23 -12 -22 -9 -24 -7 -24 -4 -22 -2 -23 -1 -22 2 -23zm-2 23l0 -12 2 -11 -2 23zm571 -1696l-265 1719 -304 -46 265 -1720 4 -19 300 66zm-304 -47l1 -10 3 -9 -4 19zm-326 -47l75 -298 9 2 16 5 17 5 17 5 19 5 19 5 19 5 20 4 20 6 21 5 20 5 20 5 21 5 20 6 21 6 21 6 20 7 20 7 20 8 21 8 20 9 20 11 20 13 20 14 20 16 20 20 18 23 17 28 13 32 8 34 3 35 -3 34 -7 32 -295 -85 -2 8 -1 11 1 13 3 13 5 12 6 9 4 6 3 3 1 1 -2 -2 -4 -2 -6 -3 -8 -4 -9 -4 -12 -4 -13 -5 -14 -5 -15 -4 -16 -5 -18 -5 -18 -4 -18 -5 -20 -5 -20 -5 -19 -5 -21 -5 -21 -5 -20 -5 -21 -6 -22 -6 -21 -6 -21 -6 9 2zm75 -298l4 1 5 1 -9 -2zm-2397 -2674l308 0 0 0 3 120 7 119 13 117 18 116 22 114 27 112 32 111 36 109 41 107 44 104 49 103 53 100 57 97 61 95 65 93 68 89 71 87 75 84 79 80 81 78 85 74 87 71 91 67 93 63 96 60 98 56 101 52 103 48 105 43 107 40 110 35 111 30 -75 298 -124 -33 -121 -39 -120 -44 -117 -49 -114 -53 -112 -57 -110 -63 -106 -66 -104 -70 -100 -75 -97 -79 -94 -82 -91 -86 -87 -89 -83 -93 -79 -97 -76 -99 -72 -103 -67 -105 -64 -109 -58 -111 -55 -114 -50 -116 -45 -119 -40 -121 -35 -123 -30 -125 -25 -127 -20 -129 -14 -131 -9 -132 -3 -133 0 0zm308 -1323l0 1323 -308 0 0 -1323 0 0 308 0zm2756 -3064l0 308 0 0 -141 4 -140 10 -137 18 -135 24 -133 31 -131 37 -128 44 -125 49 -122 56 -119 61 -115 66 -112 72 -108 77 -104 82 -100 87 -96 92 -92 96 -87 100 -82 104 -77 108 -72 112 -66 116 -61 118 -56 122 -49 126 -44 127 -37 131 -31 133 -24 135 -18 137 -10 140 -4 141 -308 0 4 -157 12 -155 20 -153 27 -150 34 -148 42 -145 48 -143 55 -139 62 -135 68 -133 74 -128 80 -124 85 -120 91 -116 97 -111 101 -107 107 -101 111 -97 116 -91 120 -85 124 -80 128 -74 132 -68 136 -62 139 -55 142 -48 146 -42 147 -34 151 -27 153 -20 155 -12 157 -4 0 0z"/>
  </g>
  <g>
   <path class="fil11" d="M79384 9463l-3678 0c-1171,0 -2129,958 -2129,2130l0 968c0,1171 958,2129 2129,2129l2129 0c194,0 195,45 292,99l1451 1256c96,75 193,97 193,0l-193 -1258c-29,-97 178,-116 322,-161 924,-232 1613,-1072 1613,-2065l0 -968c0,-1172 -958,-2130 -2129,-2130z"/>
   <path id="1" class="fil3" d="M75706 9617l0 -308 3678 0 0 308 -3678 0zm-2283 1976l0 0 3 -118 9 -115 14 -114 20 -112 26 -111 31 -108 36 -106 41 -103 46 -102 51 -98 55 -95 59 -93 64 -90 68 -86 72 -83 75 -79 80 -76 83 -72 86 -67 89 -64 93 -60 96 -55 98 -50 101 -46 104 -41 106 -36 108 -31 110 -26 112 -20 114 -15 116 -8 117 -4 0 308 -101 3 -100 7 -99 13 -97 17 -95 23 -93 26 -92 31 -90 36 -87 40 -85 43 -83 48 -80 51 -78 56 -74 59 -72 62 -69 65 -66 69 -62 72 -59 75 -55 77 -52 81 -47 82 -44 86 -40 87 -35 89 -31 92 -27 94 -22 95 -18 97 -12 98 -8 100 -3 102 0 0 -307 0zm307 968l-307 0 0 -968 307 0 0 968zm1976 2283l0 0 -117 -3 -116 -9 -114 -15 -112 -20 -110 -26 -108 -31 -106 -36 -104 -41 -101 -46 -98 -50 -96 -55 -93 -60 -89 -64 -86 -68 -83 -71 -80 -76 -75 -79 -72 -83 -68 -86 -64 -90 -59 -93 -55 -95 -51 -98 -46 -102 -41 -103 -36 -106 -31 -108 -26 -111 -20 -112 -14 -114 -9 -115 -3 -117 307 0 3 101 8 100 12 98 18 97 22 95 27 94 31 92 35 89 40 87 44 86 47 82 52 81 55 77 59 75 62 72 66 69 69 65 72 62 74 59 78 55 80 52 83 48 85 44 87 39 90 36 92 31 93 27 95 22 97 17 99 13 100 7 101 3 0 0 0 308zm2129 -308l0 308 -2129 0 0 -308 2129 0zm191 369l27 18 -12 -6 -11 -7 -10 -6 -10 -6 -8 -6 -8 -5 -9 -6 -6 -5 -5 -3 -5 -4 -5 -3 -4 -3 -3 -2 -2 -1 -2 -1 -4 -2 -2 -1 -1 0 -3 -1 -3 -1 -4 -2 -4 -1 -4 -1 -5 -1 -7 -1 -8 -1 -10 -1 -9 -1 -12 0 -13 -1 -13 0 -16 0 0 -308 20 0 19 1 19 0 17 1 18 2 16 2 15 2 16 2 16 3 15 4 15 4 13 4 14 4 12 5 14 6 12 6 10 5 11 6 10 6 10 6 7 5 8 5 7 5 8 5 6 5 5 3 5 4 6 4 6 3 5 4 5 3 6 3 27 18 -202 233zm175 -251l15 8 12 10 -27 -18zm1477 1275l-195 237 -6 -5 -1451 -1256 202 -233 1450 1257zm-195 237l-3 -2 -3 -3 6 5zm440 -144l2 23 -1 18 -2 21 -4 20 -5 20 -8 21 -12 22 -14 20 -17 20 -20 16 -20 14 -23 10 -21 8 -21 5 -20 2 -20 1 -18 0 -17 -2 -16 -3 -16 -4 -14 -4 -15 -5 -14 -5 -12 -5 -14 -7 -13 -6 -13 -7 -12 -7 -12 -8 -12 -8 -12 -8 -12 -9 -12 -9 189 -243 7 5 6 5 5 4 6 3 6 4 5 3 5 3 4 2 3 1 5 2 2 1 1 0 1 1 -1 0 -2 -1 -2 0 -6 0 -7 0 -8 1 -9 2 -11 4 -12 6 -12 8 -11 9 -9 11 -8 11 -6 11 -3 8 -2 7 -1 6 -1 4 0 1 2 23 304 -46zm0 0l2 11 0 12 -2 -23zm-497 -1212l299 -66 5 19 193 1259 -304 46 -193 -1258zm299 -66l3 9 2 10 -5 -19zm212 31l9 -2 -17 5 -15 4 -16 5 -16 4 -16 4 -15 4 -14 3 -16 4 -14 4 -14 3 -13 4 -13 3 -12 3 -11 3 -11 4 -10 3 -9 3 -6 2 -5 3 -5 2 -3 1 0 1 1 -1 3 -3 6 -6 6 -8 7 -11 6 -14 3 -16 2 -17 -1 -14 -3 -11 -295 86 -7 -29 -2 -32 3 -32 7 -31 12 -29 15 -25 17 -21 17 -18 18 -14 17 -12 17 -10 16 -9 16 -8 17 -7 16 -6 16 -6 15 -5 16 -4 16 -5 15 -4 16 -4 15 -4 15 -4 15 -4 14 -3 15 -4 14 -3 14 -4 12 -3 13 -4 12 -3 11 -4 9 -2 75 298zm-84 -296l5 -1 4 -1 -9 2zm1814 -1918l0 0 -2 99 -7 98 -10 97 -15 96 -18 95 -23 93 -26 92 -30 90 -34 89 -37 87 -40 84 -44 83 -47 81 -51 79 -53 76 -57 75 -59 71 -62 69 -65 67 -67 64 -70 62 -72 58 -75 56 -77 52 -80 50 -81 46 -83 43 -86 40 -87 36 -89 32 -91 29 -92 25 -75 -298 80 -22 78 -25 77 -28 75 -31 74 -34 72 -38 71 -40 69 -43 66 -45 65 -48 63 -51 61 -53 58 -56 56 -57 54 -61 51 -62 49 -64 46 -66 44 -68 41 -70 38 -72 35 -73 32 -75 29 -77 26 -78 23 -79 19 -81 16 -81 13 -83 9 -84 5 -86 2 -85 0 0 308 0zm-308 -968l308 0 0 968 -308 0 0 -968zm-1975 -2284l0 0 117 4 115 8 114 15 113 20 110 26 108 31 106 36 104 41 101 46 98 50 96 55 93 60 89 64 86 67 83 72 79 76 76 79 72 83 68 86 64 90 59 93 55 95 51 99 46 101 41 103 36 106 31 109 25 110 21 112 14 114 9 115 3 118 -308 0 -2 -102 -8 -100 -13 -98 -17 -97 -22 -96 -27 -93 -31 -91 -35 -90 -40 -88 -44 -85 -48 -82 -51 -81 -55 -77 -59 -75 -62 -72 -66 -69 -69 -65 -72 -62 -74 -59 -78 -56 -80 -51 -83 -48 -85 -43 -88 -40 -89 -36 -92 -31 -93 -26 -95 -23 -97 -17 -99 -13 -100 -7 -101 -3 0 0 0 -308z"/>
  </g>
  <rect class="fil12" x="71440" y="3529" width="1327" height="265" rx="663" ry="133"/>
  <rect class="fil5" x="3135" y="4126" width="9477" height="16111" rx="474" ry="501"/>
  <path class="fil6" d="M3608 3179l8530 0c782,0 1421,639 1421,1421l0 16111c0,782 -639,1421 -1421,1421l-8530 0c-782,0 -1421,-639 -1421,-1421l0 -16111c0,-782 639,-1421 1421,-1421zm0 947l8530 0c260,0 474,214 474,474l0 15163c0,261 -214,474 -474,474l-8530 0c-260,0 -473,-213 -473,-474l0 -15163c0,-260 213,-474 473,-474z"/>
  <circle class="fil7" cx="7873" cy="21185" r="474"/>
  <path class="fil8" d="M12612 9228c-1180,2193 -3496,3685 -6161,3685 -1200,0 -2330,-303 -3316,-836l0 -7477c0,-260 213,-474 473,-474l8530 0c260,0 474,214 474,474l0 4628z"/>
  <rect class="fil9" x="9050" y="20970" width="2154" height="431" rx="1077" ry="215"/>
  <rect class="fil9" x="4415" y="20970" width="2154" height="431" rx="1077" ry="215"/>
  <rect class="fil12" x="7210" y="3529" width="1327" height="265" rx="663" ry="133"/>
 </g>
</svg>
