<?xml version="1.0" encoding="UTF-8"?>
<!DOCTYPE svg PUBLIC "-//W3C//DTD SVG 1.1//EN" "http://www.w3.org/Graphics/SVG/1.1/DTD/svg11.dtd">
<!-- Creator: CorelDRAW X8 -->
<svg xmlns="http://www.w3.org/2000/svg" xml:space="preserve" width="100%" height="100%" version="1.1" style="shape-rendering:geometricPrecision; text-rendering:geometricPrecision; image-rendering:optimizeQuality; fill-rule:evenodd; clip-rule:evenodd"
viewBox="0 0 500 500"
 xmlns:xlink="http://www.w3.org/1999/xlink">
 <defs>
  <style type="text/css">
   <![CDATA[
    .fil0 {fill:#404040}
   ]]>
  </style>
 </defs>
 <g id="Layer_x0020_1">
  <metadata id="CorelCorpID_0Corel-Layer"/>
  <path class="fil0" d="M236 227l0 73c-23,1 -46,6 -68,14l-2 1c-12,-27 -19,-57 -20,-88l90 0zm0 87l0 86c-27,-20 -48,-45 -63,-73l0 0c20,-8 41,-12 63,-13zm-10 96c-42,-3 -81,-21 -111,-49 13,-11 29,-21 45,-29l1 1c15,30 38,56 65,77zm-121 -59c-31,-32 -51,-76 -53,-124l81 0c0,33 8,64 21,93 -17,8 -34,19 -49,31zm144 -138l0 -73c23,-1 46,-6 68,-14l1 -1c13,27 20,57 21,88l-90 0zm0 -87l0 -86c26,20 48,45 63,73l0 0c-20,8 -41,12 -63,13zm10 -96c42,3 81,21 111,49 -14,11 -29,21 -45,29l-1 -1c-15,-30 -38,-56 -65,-77zm121 59c31,32 51,76 52,124l-80 0c-1,-33 -8,-64 -21,-93 17,-8 34,-19 49,-31zm-144 37c-22,-1 -43,-5 -63,-13l0 0c15,-28 36,-53 63,-73l0 86zm-70 -1l2 1c22,8 45,13 68,14l0 73 -90 0c1,-30 8,-61 20,-88zm-6 -17c-16,-8 -32,-18 -45,-29 30,-28 69,-46 111,-49 -27,21 -50,47 -65,78l-1 0zm-108 105c2,-48 22,-92 53,-125 15,13 32,24 49,32 -13,29 -21,60 -21,93l-81 0zm197 257l199 0 0 -243 -199 0 0 243zm28 -165l142 0 0 -56 -142 0 0 56zm38 -22l66 0 0 -11 -66 0 0 11zm-38 165l142 0 0 -55 -142 0 0 55zm38 -22l66 0 0 -11 -66 0 0 11zm-38 -50l142 0 0 -55 -142 0 0 55zm38 -22l66 0 0 -11 -66 0 0 11z"/>
 </g>
</svg>
