<?xml version="1.0" encoding="UTF-8"?>
<!DOCTYPE svg PUBLIC "-//W3C//DTD SVG 1.1//EN" "http://www.w3.org/Graphics/SVG/1.1/DTD/svg11.dtd">
<!-- Creator: CorelDRAW X8 -->
<svg xmlns="http://www.w3.org/2000/svg" xml:space="preserve" width="100%" height="100%" version="1.1" style="shape-rendering:geometricPrecision; text-rendering:geometricPrecision; image-rendering:optimizeQuality; fill-rule:evenodd; clip-rule:evenodd"
viewBox="0 0 500 500"
 xmlns:xlink="http://www.w3.org/1999/xlink">
 <defs>
  <style type="text/css">
   <![CDATA[
    .fil0 {fill:#404040}
   ]]>
  </style>
 </defs>
 <g id="Layer_x0020_1">
  <metadata id="CorelCorpID_0Corel-Layer"/>
  <path class="fil0" d="M293 107l0 0c-21,8 -43,13 -66,13l0 -90c28,21 50,47 66,77zm-66 28c25,-1 48,-6 71,-14 1,-1 1,-1 2,-1 13,29 21,60 22,93l-95 0 0 -78zm-14 -15c-23,0 -45,-5 -66,-13l0 0c16,-30 38,-56 66,-77l0 90zm-73 0l2 1c22,8 46,13 71,14l0 78 -95 0c1,-33 9,-64 22,-93zm-7 -19c-17,-7 -33,-18 -47,-30 31,-29 72,-47 117,-51 -29,22 -53,50 -69,81l-1 0zm-113 111c2,-51 23,-97 55,-131 16,14 33,25 52,33 -14,31 -22,64 -23,99l-84 -1zm217 -192c45,4 86,22 117,51 -14,12 -30,23 -47,30l-1 0c-16,-31 -40,-59 -69,-81zm127 61c33,35 54,81 56,132l-84 0c-1,-35 -9,-68 -23,-99 18,-8 36,-19 51,-33z"/>
  <path class="fil0" d="M306 305c9,-25 15,-51 16,-78l-95 0 0 78 79 0zm-166 14l2 0c22,-9 46,-14 71,-14l0 -78 -95 0c1,32 9,64 22,92zm-120 -92c2,51 23,97 55,131 16,-13 33,-24 52,-33 -14,-30 -22,-64 -23,-98l-84 0zm381 78c11,-24 18,-51 19,-79l-84 1c-1,26 -6,53 -15,78l80 0z"/>
  <path class="fil0" d="M312 328l99 0c38,0 69,31 69,69 0,38 -31,68 -69,68l-115 0c-1,0 -2,0 -3,-1l-54 -54c-7,-8 -7,-19 0,-26 7,-8 19,-8 26,0l46 46c1,1 2,2 3,2l97 0c20,0 35,-16 35,-35 0,-19 -15,-35 -35,-35l-73 0c-2,0 -3,0 -3,-1l-26 -25c-1,-2 -1,-3 -1,-5 1,-2 2,-3 4,-3zm-148 0l116 0c2,0 3,1 3,2l55 54c7,7 7,19 0,26 -7,7 -19,7 -26,0l-47 -47c-1,0 -2,-1 -3,-1l-98 0c-20,0 -35,16 -35,35 0,19 15,35 35,35l75 0c1,0 2,0 3,1l26 25c1,1 1,3 1,5 -1,1 -3,2 -4,2l-101 0c-38,0 -69,-30 -69,-68 0,-38 31,-69 69,-69z"/>
 </g>
</svg>
