<?xml version="1.0" encoding="UTF-8"?>
<!DOCTYPE svg PUBLIC "-//W3C//DTD SVG 1.1//EN" "http://www.w3.org/Graphics/SVG/1.1/DTD/svg11.dtd">
<!-- Creator: CorelDRAW X8 -->
<svg xmlns="http://www.w3.org/2000/svg" xml:space="preserve" width="100%" height="100%" version="1.1" style="shape-rendering:geometricPrecision; text-rendering:geometricPrecision; image-rendering:optimizeQuality; fill-rule:evenodd; clip-rule:evenodd"
viewBox="0 0 500 500"
 xmlns:xlink="http://www.w3.org/1999/xlink">
 <defs>
  <style type="text/css">
   <![CDATA[
    .fil0 {fill:#303030}
   ]]>
  </style>
 </defs>
 <g id="Layer_x0020_1">
  <metadata id="CorelCorpID_0Corel-Layer"/>
  <path class="fil0" d="M250 428l-167 0c0,-92 75,-167 167,-167 92,0 167,75 167,167l-167 0zm72 -174c15,-21 39,-34 66,-34 45,0 82,37 82,82l-73 0c-21,-21 -47,-38 -75,-48zm66 -144c23,0 42,19 42,43 0,23 -19,42 -42,42 -24,0 -43,-19 -43,-42 0,-24 19,-43 43,-43zm-210 144c-15,-21 -39,-34 -66,-34 -45,0 -82,37 -82,82l73 0c21,-21 47,-38 75,-48zm-66 -144c-23,0 -42,19 -42,43 0,23 19,42 42,42 24,0 43,-19 43,-42 0,-24 -19,-43 -43,-43zm138 -38c44,0 79,35 79,79 0,44 -35,79 -79,79 -44,0 -79,-35 -79,-79 0,-44 35,-79 79,-79z"/>
 </g>
</svg>
