<?xml version="1.0" encoding="UTF-8"?>
<!DOCTYPE svg PUBLIC "-//W3C//DTD SVG 1.1//EN" "http://www.w3.org/Graphics/SVG/1.1/DTD/svg11.dtd">
<!-- Creator: CorelDRAW X8 -->
<svg xmlns="http://www.w3.org/2000/svg" xml:space="preserve" width="100%" height="100%" version="1.1" style="shape-rendering:geometricPrecision; text-rendering:geometricPrecision; image-rendering:optimizeQuality; fill-rule:evenodd; clip-rule:evenodd"
viewBox="0 0 500 500"
 xmlns:xlink="http://www.w3.org/1999/xlink">
 <defs>
  <style type="text/css">
   <![CDATA[
    .fil0 {fill:#404040}
   ]]>
  </style>
 </defs>
 <g id="Layer_x0020_1">
  <metadata id="CorelCorpID_0Corel-Layer"/>
  <path class="fil0" d="M40 52l90 0c5,0 10,4 10,10l0 380c0,5 -5,10 -10,10l-90 0c-6,0 -10,-5 -10,-10l0 -380c0,-6 4,-10 10,-10zm130 0l70 0c5,0 10,4 10,10l0 380c0,5 -5,10 -10,10l-70 0c-6,0 -10,-5 -10,-10l0 -380c0,-6 4,-10 10,-10zm102 0l50 -3c6,0 10,4 11,9l2 30 -70 5 -2 -30c0,-5 4,-10 9,-11zm64 56l16 219 -70 5 -15 -219 69 -5zm17 239l1 21 -69 5 -2 -21 70 -5zm3 41l3 49c1,6 -4,11 -9,11l-50 4c-5,0 -10,-4 -10,-10l-4 -49 70 -5zm0 -333l50 -7c5,0 10,4 11,9l5 31 -70 10 -4 -31c-1,-6 3,-11 8,-12zm68 53l31 217 -69 10 -31 -217 69 -10zm34 238l3 20 -70 9 -3 -20 70 -9zm5 40l7 47c1,6 -3,11 -8,12l-50 7c-5,0 -11,-4 -11,-9l-7 -48 69 -9zm-378 26c19,0 35,-16 35,-35 0,-20 -16,-35 -35,-35 -19,0 -35,15 -35,35 0,19 16,35 35,35zm-30 -330l60 0 0 190 -60 0 0 -190zm126 0l48 0 0 190 -48 0 0 -190zm-115 18l37 0 0 19 -37 0 0 -19z"/>
 </g>
</svg>
