<?xml version="1.0" encoding="UTF-8"?>
<!DOCTYPE svg PUBLIC "-//W3C//DTD SVG 1.1//EN" "http://www.w3.org/Graphics/SVG/1.1/DTD/svg11.dtd">
<!-- Creator: CorelDRAW X8 -->
<svg xmlns="http://www.w3.org/2000/svg" xml:space="preserve" width="100%" height="100%" version="1.1" style="shape-rendering:geometricPrecision; text-rendering:geometricPrecision; image-rendering:optimizeQuality; fill-rule:evenodd; clip-rule:evenodd"
viewBox="0 0 500 500"
 xmlns:xlink="http://www.w3.org/1999/xlink">
 <defs>
  <style type="text/css">
   <![CDATA[
    .fil0 {fill:#404040}
   ]]>
  </style>
 </defs>
 <g id="Layer_x0020_1">
  <metadata id="CorelCorpID_0Corel-Layer"/>
  <path class="fil0" d="M44 293l6 0 0 -105 -6 0c-8,0 -14,-6 -14,-14l0 -67c0,-8 6,-15 14,-15l6 0 0 -13c0,-22 17,-39 39,-39l342 0c21,0 39,17 39,39l0 342c0,22 -18,39 -39,39 -110,0 -235,0 -342,0 -22,0 -39,-17 -39,-39l0 -32 -6 0c-8,0 -14,-7 -14,-14l0 -67c0,-8 6,-15 14,-15zm56 -222l325 0c8,0 15,7 15,15l0 325c0,8 -7,15 -15,15l-325 0c-8,0 -15,-7 -15,-15l0 -325c0,-8 7,-15 15,-15zm9 19l307 0c3,0 5,2 5,5l0 307c0,3 -2,5 -5,5l-307 0c-3,0 -5,-2 -5,-5l0 -307c0,-3 2,-5 5,-5zm153 40c66,0 119,53 119,118 0,66 -53,119 -119,119 -65,0 -118,-53 -118,-119 0,-65 53,-118 118,-118zm14 82c15,5 26,20 26,36 0,3 0,5 -1,7l50 29c4,-11 6,-23 6,-36 0,-47 -35,-87 -81,-93l0 57zm11 67c-6,5 -15,9 -25,9 -9,0 -18,-4 -25,-9l-49 28c17,22 44,36 74,36 31,0 58,-14 75,-36l-50 -28zm-63 -24c-1,-2 -1,-4 -1,-7 0,-16 11,-31 26,-36l0 -57c-46,6 -81,46 -81,93 0,13 2,25 6,36l50 -29zm38 -25c11,0 19,8 19,18 0,11 -8,19 -19,19 -10,0 -18,-8 -18,-19 0,-10 8,-18 18,-18z"/>
 </g>
</svg>
